<?xml version="1.0" encoding="UTF-8"?>
<svg width="41px" height="48px" viewBox="0 0 41 48" version="1.1" xmlns="http://www.w3.org/2000/svg" xmlns:xlink="http://www.w3.org/1999/xlink">
    <!-- Generator: Sketch 47 (45396) - http://www.bohemiancoding.com/sketch -->
    <title>Andriod@2x</title>
    <desc>Created with Sketch.</desc>
    <defs></defs>
    <g id="Concept-deisgn-" stroke="none" stroke-width="1" fill="none" fill-rule="evenodd">
        <g id="1440px---Dashboard-Design-" transform="translate(-1111.000000, -116.000000)" fill-rule="nonzero" fill="#FFFFFF">
            <g id="Group-5" transform="translate(1089.000000, 98.000000)">
                <g id="Andriod">
                    <g transform="translate(22.000000, 18.000000)" id="Shape">
                        <path d="M8.0534902,35.9500392 C8.0534902,37.1500392 8.8534902,37.9500392 10.0534902,37.9500392 L12.0534902,37.9500392 L12.0534902,44.9500392 C12.0534902,46.5500392 13.4534902,47.9500392 15.0534902,47.9500392 C16.6534902,47.9500392 18.0534902,46.5500392 18.0534902,44.9500392 L18.0534902,37.9500392 L22.0534902,37.9500392 L22.0534902,44.9500392 C22.0534902,46.5500392 23.4534902,47.9500392 25.0534902,47.9500392 C26.6534902,47.9500392 28.0534902,46.5500392 28.0534902,44.9500392 L28.0534902,37.9500392 L30.0534902,37.9500392 C31.2534902,37.9500392 32.0534902,37.1500392 32.0534902,35.9500392 L32.0534902,15.9500392 L8.0534902,15.9500392 L8.0534902,35.9500392 Z M3.0534902,15.9500392 C1.4534902,15.9500392 0.0534901961,17.3501176 0.0534901961,18.9500392 L0.0534901961,32.9500392 C0.0534901961,34.5500392 1.4534902,35.9500392 3.0534902,35.9500392 C4.6534902,35.9500392 6.0534902,34.5500392 6.0534902,32.9500392 L6.0534902,18.9500392 C6.0534902,17.3500392 4.6534902,15.9500392 3.0534902,15.9500392 Z M37.0534902,15.9500392 C35.4534902,15.9500392 34.0534902,17.3501176 34.0534902,18.9500392 L34.0534902,32.9500392 C34.0534902,34.5500392 35.4534902,35.9500392 37.0534902,35.9500392 C38.6534902,35.9500392 40.0534902,34.5500392 40.0534902,32.9500392 L40.0534902,18.9500392 C40.0534902,17.3500392 38.6534902,15.9500392 37.0534902,15.9500392 Z M27.0534902,4.35003922 L29.6534902,1.75003922 C30.0534902,1.35003922 30.0534902,0.750039216 29.6534902,0.350039216 C29.2534118,-0.0500392157 28.6534902,-0.0500392157 28.2534118,0.350039216 L25.2534118,3.35003922 C23.8534118,2.35003922 22.0534118,1.94996078 20.0534118,1.94996078 C18.0534118,1.94996078 16.2534118,2.35003922 14.6534118,3.14996078 L11.8534118,0.149960784 C11.4534118,-0.0500392157 10.6534118,-0.0500392157 10.2534118,0.149960784 C10.0534118,0.550039216 10.0534118,1.35003922 10.2534118,1.74996078 L12.8534118,4.34996078 C10.0534118,6.54996078 8.05341176,9.94988235 8.05341176,13.9498824 L32.0534118,13.9498824 C32.0534902,9.95003922 30.0534902,6.35003922 27.0534902,4.35003922 Z M16.0534902,9.95003922 L14.0534902,9.95003922 L14.0534902,7.95003922 L16.0534902,7.95003922 L16.0534902,9.95003922 Z M26.0534902,9.95003922 L24.0534902,9.95003922 L24.0534902,7.95003922 L26.0534902,7.95003922 L26.0534902,9.95003922 Z"></path>
                    </g>
                </g>
            </g>
        </g>
    </g>
</svg>