<?xml version="1.0" encoding="UTF-8"?>
<svg width="40px" height="40px" viewBox="0 0 40 40" version="1.1" xmlns="http://www.w3.org/2000/svg" xmlns:xlink="http://www.w3.org/1999/xlink">
    <!-- Generator: Sketch 47 (45396) - http://www.bohemiancoding.com/sketch -->
    <title>Web@2x</title>
    <desc>Created with Sketch.</desc>
    <defs></defs>
    <g id="Concept-deisgn-" stroke="none" stroke-width="1" fill="none" fill-rule="evenodd">
        <g id="1440px---Dashboard-Design-" transform="translate(-1287.000000, -120.000000)" fill-rule="nonzero" fill="#FFFFFF">
            <g id="Group-5" transform="translate(1089.000000, 98.000000)">
                <g id="Group-2" transform="translate(176.000000, 0.000000)">
                    <g id="Web" transform="translate(22.000000, 22.000000)">
                        <g id="Group">
                            <path d="M20.84,10.88 L28.492,10.88 C29.1626548,13.5892664 29.5262764,16.3654033 29.576,19.156 L20.84,19.156 L20.84,10.88 Z" id="Shape"></path>
                            <path d="M10.4,20.84 L19.152,20.84 L19.152,29.12 L11.632,29.12 C11.593407,29.1282104 11.5531506,29.1192553 11.5216776,29.0954586 C11.4902046,29.071662 11.4706178,29.0353698 11.468,28.996 C11.1423516,27.6921983 10.8965616,26.369741 10.732,25.036 C10.624,24.152 10.56,23.268 10.488,22.38 C10.448,21.9 10.44,21.416 10.416,20.936 C10.4,20.908 10.4,20.88 10.4,20.84 Z" id="Shape"></path>
                            <path d="M10.44,19.156 C10.44,18.876 10.44,18.604 10.44,18.332 C10.524,17.252 10.6,16.168 10.716,15.092 C10.8749923,13.7048238 11.1262151,12.3297797 11.468,10.976 C11.4687925,10.9461083 11.4824128,10.918004 11.5053843,10.8988612 C11.5283558,10.8797183 11.5584555,10.8713892 11.588,10.876 L19.096,10.876 L19.152,10.876 L19.152,19.156 L10.44,19.156 Z" id="Shape"></path>
                            <path d="M29.552,20.844 C29.552,21.12 29.552,21.388 29.552,21.644 C29.468,22.728 29.388,23.816 29.276,24.9 C29.1157745,26.2859612 28.8632131,27.6596815 28.52,29.012 C28.5192075,29.0418917 28.5055872,29.069996 28.4826157,29.0891388 C28.4596442,29.1082817 28.4295445,29.1166108 28.4,29.112 L20.892,29.112 L20.836,29.112 L20.836,20.844 L29.552,20.844 Z" id="Shape"></path>
                            <path d="M9.748,10.884 C9.12797315,13.598974 8.79415035,16.3714461 8.752,19.156 L0,19.156 C0,18.924 0,18.7 0.036,18.476 C0.234126306,15.8623962 0.946417935,13.3136428 2.132,10.976 C2.15875418,10.9083501 2.2277782,10.8672643 2.3,10.876 L9.748,10.876 L9.748,10.884 Z" id="Shape"></path>
                            <path d="M0,20.84 L8.752,20.84 C8.79505169,23.6273631 9.13021702,26.402532 9.752,29.12 L2.324,29.12 C2.23471496,29.1290688 2.15067644,29.0763387 2.12,28.992 C1.32857264,27.4113249 0.75020042,25.7327004 0.4,24 C0.188078505,23.0080099 0.0543345695,22.000918 0,20.988 C0,20.94 0,20.892 0,20.84 Z" id="Shape"></path>
                            <path d="M40,19.16 L31.24,19.16 C31.1982166,16.3725509 30.8630352,13.5972496 30.24,10.88 L37.668,10.88 C37.7583608,10.8714584 37.8427657,10.9260733 37.872,11.012 C39.111027,13.4650133 39.8287575,16.1479906 39.98,18.892 C40,18.972 40,19.06 40,19.16 Z" id="Shape"></path>
                            <path d="M40,20.84 C39.968,21.268 39.944,21.684 39.9,22.096 C39.8114181,22.9498442 39.6671104,23.796984 39.468,24.632 C39.1090508,26.1563337 38.572027,27.6331491 37.868,29.032 C37.847896,29.0933893 37.7883994,29.1330537 37.724,29.128 L30.24,29.128 C30.8637394,26.408165 31.1989262,23.6301373 31.24,20.84 L40,20.84 Z" id="Shape"></path>
                            <path d="M19.152,39.932 C18.2149772,39.7318715 17.3430709,39.3000441 16.616,38.676 C15.8204042,38.0082401 15.1264362,37.2280314 14.556,36.36 C13.4742948,34.7075291 12.6300483,32.9113172 12.048,31.024 L12,30.828 L19.152,30.828 L19.152,39.932 Z" id="Shape"></path>
                            <path d="M20.832,39.932 L20.832,30.828 L28,30.828 L27.912,31.104 C27.4857731,32.4424295 26.9367722,33.7386073 26.272,34.976 C25.5813358,36.3186061 24.6545474,37.52587 23.536,38.54 C22.7735323,39.2348247 21.8405175,39.7151341 20.832,39.932 L20.832,39.932 Z" id="Shape"></path>
                            <path d="M19.152,0.068 L19.152,9.176 L12,9.176 C12,9.136 12,9.104 12.028,9.072 C12.5422181,7.40201162 13.252503,5.79883547 14.144,4.296 C14.8141906,3.13231274 15.6865094,2.09745003 16.72,1.24 C17.4238352,0.658214285 18.2584091,0.256026541 19.152,0.068 Z" id="Shape"></path>
                            <path d="M28,9.176 L20.84,9.176 L20.84,0.072 C21.3335674,0.1671837 21.8097163,0.337140558 22.252,0.576 C23.1917641,1.09726429 24.018468,1.80023457 24.684,2.644 C25.7393597,3.95663618 26.5878289,5.42290972 27.2,6.992 C27.48,7.672 27.712,8.372 27.964,9.064 C28,9.092 28,9.124 28,9.176 Z" id="Shape"></path>
                            <path d="M14.78,0.704 C14.608,0.888 14.436,1.068 14.268,1.256 C13.4321432,2.20497579 12.713635,3.25117746 12.128,4.372 C11.3440896,5.85577863 10.714139,7.41591158 10.248,9.028 C10.2411149,9.07705778 10.2147392,9.12126684 10.174839,9.15062738 C10.1349388,9.17998793 10.0848852,9.19201927 10.036,9.184 L3.16,9.184 C5.85159576,5.02059858 9.98028798,1.99241639 14.76,0.676 L14.78,0.704 Z" id="Shape"></path>
                            <path d="M3.156,30.8 L10.044,30.8 C10.0913711,30.7919957 10.1399553,30.8037042 10.1784798,30.8324087 C10.2170043,30.8611132 10.2421202,30.9043186 10.248,30.952 C10.7183871,32.5803078 11.3564708,34.1554093 12.152,35.652 C12.827964,36.952034 13.6889277,38.1471432 14.708,39.2 L14.768,39.268 C14.7703095,39.2852564 14.7703095,39.3027436 14.768,39.32 C9.98263778,38.0018385 5.8494647,34.9692313 3.156,30.8 Z" id="Shape"></path>
                            <path d="M36.82,9.2 L29.956,9.2 C29.9071148,9.20801927 29.8570612,9.19598793 29.817161,9.16662738 C29.7772608,9.13726684 29.7508851,9.09305778 29.744,9.044 C29.2782598,7.43177384 28.6482931,5.87160084 27.864,4.388 C27.182157,3.07244405 26.3116151,1.86365763 25.28,0.8 C25.245361,0.772268141 25.2179189,0.736593444 25.2,0.696 C26.7797889,1.1062103 28.3002609,1.71789446 29.724,2.516 C31.154521,3.31494825 32.4817457,4.28618658 33.676,5.408 C34.8739528,6.53977402 35.9297141,7.81313507 36.82,9.2 L36.82,9.2 Z" id="Shape"></path>
                            <path d="M25.2,39.296 C25.372,39.112 25.544,38.932 25.712,38.748 C26.5385939,37.8092607 27.250286,36.775293 27.832,35.668 C28.6245596,34.1746885 29.2612503,32.6037378 29.732,30.98 C29.7328427,30.9228857 29.759606,30.8692523 29.8047361,30.8342376 C29.8498661,30.7992229 29.9084675,30.7866252 29.964,30.8 L36.8,30.8 C35.4752912,32.876524 33.7789098,34.6908792 31.796,36.152 C29.8175369,37.6103593 27.5787711,38.6774726 25.2,39.296 L25.2,39.296 Z" id="Shape"></path>
                        </g>
                    </g>
                </g>
            </g>
        </g>
    </g>
</svg>