<?xml version="1.0" encoding="UTF-8"?>
<svg width="36px" height="44px" viewBox="0 0 36 44" version="1.1" xmlns="http://www.w3.org/2000/svg" xmlns:xlink="http://www.w3.org/1999/xlink">
    <!-- Generator: Sketch 47 (45396) - http://www.bohemiancoding.com/sketch -->
    <title>ios@2x</title>
    <desc>Created with Sketch.</desc>
    <defs></defs>
    <g id="Concept-deisgn-" stroke="none" stroke-width="1" fill="none" fill-rule="evenodd">
        <g id="1440px---Dashboard-Design-" transform="translate(-1201.000000, -118.000000)" fill-rule="nonzero" fill="#FFFFFF">
            <g id="Group-5" transform="translate(1089.000000, 98.000000)">
                <g id="Group-4" transform="translate(88.000000, 0.000000)">
                    <g id="ios" transform="translate(24.000000, 20.000000)">
                        <path d="M29.9215759,23.3758171 C29.9834062,30.03441 35.7629204,32.2502219 35.8269496,32.2785039 C35.7780811,32.4347752 34.9034796,35.4362529 32.7820269,38.536565 C30.9481245,41.2169419 29.0447755,43.8875001 26.0464385,43.9428096 C23.1002726,43.9970954 22.1529158,42.1957256 18.7846141,42.1957256 C15.4173298,42.1957256 14.3647733,43.8874956 11.5758991,43.9970954 C8.68174326,44.106615 6.47787399,41.0986228 4.62873103,38.4280648 C0.850231335,32.9653481 -2.03732425,22.9917109 1.83993302,16.2593431 C3.76607171,12.9160219 7.20822715,10.7988914 10.9443791,10.7446015 C13.7863662,10.6903903 16.4688642,12.6565956 18.2062069,12.6565956 C19.942448,12.6565956 23.202254,10.2920614 26.6291678,10.6393231 C28.0637909,10.6990335 32.0908018,11.2188297 34.6766561,15.0038491 C34.4683,15.1330142 29.8716079,17.8089896 29.9215759,23.3758234 M24.3845975,7.02525942 C25.9211242,5.16535492 26.9552953,2.57619585 26.6731623,0 C24.4583744,0.0890146068 21.7801983,1.47587312 20.1915802,3.33475436 C18.7678734,4.98088026 17.5210262,7.61560977 17.8574472,10.1408171 C20.3260883,10.3318126 22.8479952,8.88634671 24.3845975,7.02526245" id="Shape"></path>
                    </g>
                </g>
            </g>
        </g>
    </g>
</svg>